<svg display="none" xmlns="http://www.w3.org/2000/svg">
	<symbol id="heart" viewBox="0 0 35 31" stroke-width="2">
		<path d="M16.804 4.52838L17.5111 5.23549L18.2182 4.52838L19.1754 3.57121C20.8209 1.92573 23.0004 1.02226 25.3243 1.02226C27.6494 1.02226 29.8212 1.91913 31.4659 3.56379C33.11 5.20793 34.0066 7.38601 34 9.70985V9.71272C34 12.0365 33.0966 14.2159 31.4513 15.8614C31.4512 15.8615 31.4511 15.8616 31.451 15.8616L17.4927 29.768C17.4921 29.7676 17.4915 29.7671 17.4911 29.7666L3.55641 15.832C1.90896 14.1845 1.00004 12.0116 1.00004 9.69046L1.00004 9.68759C0.993384 7.36572 1.89603 5.18707 3.54157 3.54153C5.1795 1.90359 7.35896 1 9.67566 1C11.9985 1 14.1857 1.91008 15.832 3.55637L16.804 4.52838Z"/>
	</symbol>
	<symbol id="logo" viewBox="0 0 150 77">
		<path fill-rule="evenodd" clip-rule="evenodd" d="M66.9629 0.00810295C69.1629 -0.090969 70.9263 0.718448 72.253 2.43634C72.5574 2.974 72.7021 3.55215 72.6866 4.17079C71.1735 16.6817 70.1039 29.2276 69.4779 41.8084C71.348 37.7482 73.6316 33.9614 76.329 30.4478C79.2418 28.423 82.3061 28.0761 85.5216 29.4071C86.0385 29.8369 86.2697 30.3862 86.2154 31.0548C84.5182 38.7754 83.8534 46.5804 84.2207 54.4699C84.3269 54.9091 84.5871 55.0536 85.0013 54.9036C85.6083 54.5277 86.0997 54.0363 86.4755 53.4293C88.5283 50.1912 90.2627 46.7802 91.6789 43.196C92.6308 40.4871 93.5558 37.7698 94.454 35.0441C95.8088 31.8404 97.9191 29.2675 100.785 27.3257C105.173 25.4576 109.394 25.8045 113.446 28.3664C116.871 31.2234 118.808 34.8946 119.257 39.3802C119.974 45.9598 117.979 51.5391 113.273 56.1177C109.695 58.8352 105.706 59.6447 101.305 58.5459C100.07 58.1924 98.9138 57.6721 97.8362 56.9849C95.8886 55.3283 94.4143 53.3337 93.4134 51.001C91.6605 54.5454 89.319 57.6384 86.3888 60.2804C83.8147 62.0131 81.1551 62.1865 78.4103 60.8007C76.6566 59.1896 75.5872 57.1949 75.2016 54.8168C74.5493 50.1607 74.665 45.5354 75.5485 40.9412C73.2368 45.4452 71.3289 50.1283 69.8248 54.9903C68.78 57.7283 68.2019 60.5612 68.0903 63.4891C67.7363 64.9419 66.8403 65.8958 65.4019 66.3509C63.5553 67.0048 61.7629 66.8893 60.0251 66.0041C59.2046 65.4036 58.7999 64.5943 58.811 63.5758C60.4247 43.7975 61.6678 23.9959 62.5401 4.17079C63.0386 1.7352 64.5129 0.34764 66.9629 0.00810295ZM105.815 31.0548C107.562 31.3845 108.69 32.4252 109.197 34.1768C110.839 38.9363 111.185 43.7928 110.238 48.7462C109.96 50.1591 109.353 51.402 108.416 52.4753C106.634 53.2768 105.218 52.8432 104.167 51.1745C102.694 48.2042 101.971 45.0534 101.999 41.7217C102.029 39.0212 102.463 36.3907 103.3 33.8299C103.711 32.4648 104.55 31.5398 105.815 31.0548Z"/>
		<path fill-rule="evenodd" clip-rule="evenodd" d="M129.23 17.5261C130.415 17.4062 131.513 17.6376 132.525 18.2199C132.713 18.4219 132.858 18.6531 132.959 18.9136C132.613 22.1987 132.382 25.4942 132.265 28.8C136.237 25.3049 140.486 24.9291 145.013 27.6726C148.138 30.7962 149.785 34.583 149.957 39.0333C150.282 44.9917 148.779 50.4262 145.447 55.3372C142.002 59.8769 137.695 60.9466 132.525 58.5459C131.903 58.1336 131.296 57.7 130.704 57.2451C130.415 62.9726 130.184 68.6963 130.01 74.4161C129.645 75.2222 129.038 75.7715 128.189 76.0639C125.836 77.0036 123.581 76.8302 121.425 75.5435C121.095 75.0461 120.922 74.497 120.904 73.8958C121.471 67.432 121.847 60.9568 122.032 54.4699C122.319 44.0644 122.55 33.6577 122.726 23.2498C123.136 21.3023 124.206 19.828 125.934 18.8269C126.993 18.2343 128.091 17.8006 129.23 17.5261ZM136.688 31.5752C138.171 31.2907 139.241 31.811 139.897 33.1362C141.376 38.9372 141.087 44.6609 139.029 50.3072C138.611 51.2021 138.149 52.0693 137.642 52.9089C136.692 54.0427 135.565 54.2452 134.26 53.516C132.687 51.8424 131.79 49.8478 131.571 47.5321C131.184 43.3434 131.762 39.2964 133.306 35.391C134.078 33.7774 135.206 32.5055 136.688 31.5752Z"/>
		<path fill-rule="evenodd" clip-rule="evenodd" d="M12.6745 21.3419C14.4718 21.3141 16.1483 21.7477 17.7045 22.6427C22.7722 26.6294 24.7668 31.8038 23.6883 38.1661C22.5715 40.2164 20.9238 41.6907 18.7451 42.5889C15.9594 43.6896 13.0688 44.3255 10.0729 44.4968C9.98614 44.5836 9.89942 44.6703 9.8127 44.757C9.33968 47.9886 9.28185 51.2262 9.63925 54.4699C9.83202 56.3227 10.4969 57.9704 11.6339 59.4131C13.2771 60.2521 14.8959 60.1943 16.4903 59.2397C18.882 57.7153 20.8766 55.7784 22.4742 53.4293C25.5766 49.0175 28.0916 44.2766 30.0191 39.2068C29.3272 37.1075 29.6163 35.1707 30.8863 33.3963C31.416 33.0158 31.9943 32.7267 32.6208 32.5291C39.0046 32.4511 44.9595 30.8321 50.4856 27.6726C53.4855 27.1917 55.5958 28.377 56.8164 31.2283C57.6938 33.8069 56.8556 35.5124 54.3014 36.3449C49.8793 37.4607 45.4274 38.4434 40.9461 39.2935C44.6955 40.2148 48.1067 41.8336 51.1794 44.1499C52.4927 45.3469 53.6779 46.6477 54.735 48.0525C57.86 55.4456 55.7497 60.7357 48.4043 63.9227C44.6289 65.4026 40.8709 65.3448 37.1303 63.7493C32.9281 61.2687 31.2226 57.5973 32.0137 52.7355C32.9101 50.5921 34.5 49.2333 36.7834 48.6595C38.4515 48.2707 39.9835 48.5888 41.3797 49.6135C41.6992 50.1779 41.8437 50.7849 41.8134 51.4347C41.6387 53.0801 41.6099 54.7279 41.7266 56.3778C41.9819 57.6711 42.6468 58.6829 43.7213 59.4131C45.1829 59.6218 46.2525 59.0727 46.93 57.7654C47.5039 55.8834 47.3882 54.0332 46.5831 52.2152C44.9989 48.6101 42.4839 45.8639 39.0382 43.9765C37.5641 43.0706 36.0031 42.3479 34.3552 41.8084C32.9399 46.4297 31.003 50.8236 28.5448 54.9903C25.9376 59.2166 22.4397 62.4831 18.0513 64.7899C14.9619 66.0939 11.7822 66.383 8.51186 65.6572C6.35323 64.9431 4.64768 63.6423 3.39522 61.7547C0.991492 57.4863 -0.135903 52.89 0.0130348 47.9657C0.108569 40.6165 1.87194 33.7077 5.30312 27.239C6.29571 25.5528 7.53872 24.0785 9.03219 22.8162C10.1491 22.0246 11.3632 21.533 12.6745 21.3419ZM14.9293 27.5859C15.2769 27.7894 15.5371 28.0785 15.7098 28.4531C16.7861 31.2675 16.7283 34.0426 15.5364 36.7785C14.1719 37.8204 12.6399 38.1673 10.9401 37.8192C11.6217 34.5893 12.6334 31.4673 13.9754 28.4531C14.2754 28.1233 14.5934 27.8341 14.9293 27.5859Z"/>
	</symbol>
	<symbol id="star" viewBox="0 0 25 23">
		<path d="M12.5 0L15.3064 8.63729H24.3882L17.0409 13.9754L19.8473 22.6127L12.5 17.2746L5.15268 22.6127L7.95911 13.9754L0.611794 8.63729H9.69357L12.5 0Z"/>
	</symbol>
	<symbol id="trash" viewBox="0 0 729.837 729.838">
		<path xmlns="http://www.w3.org/2000/svg" d="M589.193,222.04c0-6.296,5.106-11.404,11.402-11.404S612,215.767,612,222.04v437.476c0,19.314-7.936,36.896-20.67,49.653     c-12.733,12.734-30.339,20.669-49.653,20.669H188.162c-19.315,0-36.943-7.935-49.654-20.669     c-12.734-12.734-20.669-30.313-20.669-49.653V222.04c0-6.296,5.108-11.404,11.403-11.404c6.296,0,11.404,5.131,11.404,11.404     v437.476c0,13.02,5.37,24.922,13.97,33.521c8.6,8.601,20.503,13.993,33.522,13.993h353.517c13.019,0,24.896-5.394,33.498-13.993     c8.624-8.624,13.992-20.503,13.992-33.498V222.04H589.193z"/>
		<path xmlns="http://www.w3.org/2000/svg" d="M279.866,630.056c0,6.296-5.108,11.403-11.404,11.403s-11.404-5.107-11.404-11.403v-405.07     c0-6.296,5.108-11.404,11.404-11.404s11.404,5.108,11.404,11.404V630.056z"/>
		<path xmlns="http://www.w3.org/2000/svg" d="M376.323,630.056c0,6.296-5.107,11.403-11.403,11.403s-11.404-5.107-11.404-11.403v-405.07     c0-6.296,5.108-11.404,11.404-11.404s11.403,5.108,11.403,11.404V630.056z"/>
		<path xmlns="http://www.w3.org/2000/svg" d="M472.803,630.056c0,6.296-5.106,11.403-11.402,11.403c-6.297,0-11.404-5.107-11.404-11.403v-405.07     c0-6.296,5.107-11.404,11.404-11.404c6.296,0,11.402,5.108,11.402,11.404V630.056L472.803,630.056z"/>
		<path xmlns="http://www.w3.org/2000/svg" d="M273.214,70.323c0,6.296-5.108,11.404-11.404,11.404c-6.295,0-11.403-5.108-11.403-11.404     c0-19.363,7.911-36.943,20.646-49.677C283.787,7.911,301.368,0,320.73,0h88.379c19.339,0,36.92,7.935,49.652,20.669     c12.734,12.734,20.67,30.362,20.67,49.654c0,6.296-5.107,11.404-11.403,11.404s-11.403-5.108-11.403-11.404     c0-13.019-5.369-24.922-13.97-33.522c-8.602-8.601-20.503-13.994-33.522-13.994h-88.378c-13.043,0-24.922,5.369-33.546,13.97     C278.583,45.401,273.214,57.28,273.214,70.323z"/>
		<path xmlns="http://www.w3.org/2000/svg" d="M99.782,103.108h530.273c11.189,0,21.405,4.585,28.818,11.998l0.047,0.048c7.413,7.412,11.998,17.628,11.998,28.818     v29.46c0,6.295-5.108,11.403-11.404,11.403h-0.309H70.323c-6.296,0-11.404-5.108-11.404-11.403v-0.285v-29.175     c0-11.166,4.585-21.406,11.998-28.818l0.048-0.048C78.377,107.694,88.616,103.108,99.782,103.108L99.782,103.108z      M630.056,125.916H99.782c-4.965,0-9.503,2.02-12.734,5.274L87,131.238c-3.255,3.23-5.274,7.745-5.274,12.734v18.056h566.361     v-18.056c0-4.965-2.02-9.503-5.273-12.734l-0.049-0.048C639.536,127.936,635.021,125.916,630.056,125.916z"/>

	</symbol>
</svg>
